HIERARCHY
ROOT mixamorig:Hips
{
	OFFSET 0.000000 104.274902 0.000000
	CHANNELS 6 Xposition Yposition Zposition Xrotation Yrotation Zrotation
	JOINT mixamorig:Spine
	{
		OFFSET 0.000000 10.181549 0.131524
		CHANNELS 6 Xposition Yposition Zposition Xrotation Yrotation Zrotation
		JOINT mixamorig:Spine1
		{
			OFFSET 0.000000 9.893990 -1.470706
			CHANNELS 3 Xrotation Yrotation Zrotation
			JOINT mixamorig:Spine2
			{
				OFFSET 0.000000 9.220787 -1.370637
				CHANNELS 3 Xrotation Yrotation Zrotation
				JOINT mixamorig:Neck
				{
					OFFSET 0.000000 16.740372 -2.049022
					CHANNELS 6 Xposition Yposition Zposition Xrotation Yrotation Zrotation
					JOINT mixamorig:Head
					{
						OFFSET 0.000000 9.617859 1.684976
						CHANNELS 6 Xposition Yposition Zposition Xrotation Yrotation Zrotation
						JOINT mixamorig:HeadTop_End
						{
							OFFSET 0.000000 22.037384 7.501072
							CHANNELS 6 Xposition Yposition Zposition Xrotation Yrotation Zrotation
							End Site
							{
								OFFSET 0.000000 23.106567 -2.828246
							}
						}
					}
				}
				JOINT mixamorig:RightShoulder
				{
					OFFSET -4.570000 11.014877 -2.160840
					CHANNELS 6 Xposition Yposition Zposition Xrotation Yrotation Zrotation
					JOINT mixamorig:RightArm
					{
						OFFSET -10.592867 -0.524796 -2.232105
						CHANNELS 3 Xrotation Yrotation Zrotation
						JOINT mixamorig:RightForeArm
						{
							OFFSET -27.841497 0.000000 -0.000002
							CHANNELS 3 Xrotation Yrotation Zrotation
							JOINT mixamorig:RightHand
							{
								OFFSET -28.328812 0.000000 -0.000001
								CHANNELS 3 Xrotation Yrotation Zrotation
								JOINT mixamorig:RightHandThumb1
								{
									OFFSET -2.464798 -1.573990 2.681911
									CHANNELS 6 Xposition Yposition Zposition Xrotation Yrotation Zrotation
									JOINT mixamorig:RightHandThumb2
									{
										OFFSET -3.244781 -1.873383 1.873376
										CHANNELS 3 Xrotation Yrotation Zrotation
										JOINT mixamorig:RightHandThumb3
										{
											OFFSET -2.646263 -1.527817 1.527818
											CHANNELS 6 Xposition Yposition Zposition Xrotation Yrotation Zrotation
											JOINT mixamorig:RightHandThumb4
											{
												OFFSET -1.994591 -1.151581 1.151575
												CHANNELS 6 Xposition Yposition Zposition Xrotation Yrotation Zrotation
												End Site
												{
													OFFSET -1.860176 -1.142715 1.365483
												}
											}
										}
									}
								}
								JOINT mixamorig:RightHandIndex1
								{
									OFFSET -9.108299 -0.517883 2.259803
									CHANNELS 6 Xposition Yposition Zposition Xrotation Yrotation Zrotation
									JOINT mixamorig:RightHandIndex2
									{
										OFFSET -3.699997 0.000000 0.000000
										CHANNELS 3 Xrotation Yrotation Zrotation
										JOINT mixamorig:RightHandIndex3
										{
											OFFSET -2.850006 0.000000 0.000000
											CHANNELS 3 Xrotation Yrotation Zrotation
											JOINT mixamorig:RightHandIndex4
											{
												OFFSET -2.772194 0.000000 0.000000
												CHANNELS 3 Xrotation Yrotation Zrotation
												End Site
												{
													OFFSET -2.772202 0.000000 -0.000484
												}
											}
										}
									}
								}
								JOINT mixamorig:RightHandMiddle1
								{
									OFFSET -9.532501 0.000000 -0.000000
									CHANNELS 6 Xposition Yposition Zposition Xrotation Yrotation Zrotation
									JOINT mixamorig:RightHandMiddle2
									{
										OFFSET -3.699997 0.000000 0.000000
										CHANNELS 3 Xrotation Yrotation Zrotation
										JOINT mixamorig:RightHandMiddle3
										{
											OFFSET -2.949997 0.000000 0.000000
											CHANNELS 3 Xrotation Yrotation Zrotation
											JOINT mixamorig:RightHandMiddle4
											{
												OFFSET -2.946594 0.000000 0.000000
												CHANNELS 3 Xrotation Yrotation Zrotation
												End Site
												{
													OFFSET -2.946602 0.000000 -0.000982
												}
											}
										}
									}
								}
								JOINT mixamorig:RightHandRing1
								{
									OFFSET -9.103600 -0.043106 -1.865100
									CHANNELS 6 Xposition Yposition Zposition Xrotation Yrotation Zrotation
									JOINT mixamorig:RightHandRing2
									{
										OFFSET -3.379303 0.000000 0.000000
										CHANNELS 3 Xrotation Yrotation Zrotation
										JOINT mixamorig:RightHandRing3
										{
											OFFSET -2.889694 0.000000 0.000000
											CHANNELS 3 Xrotation Yrotation Zrotation
											JOINT mixamorig:RightHandRing4
											{
												OFFSET -2.638802 0.000000 0.000000
												CHANNELS 3 Xrotation Yrotation Zrotation
												End Site
												{
													OFFSET -2.638802 0.000000 0.004218
												}
											}
										}
									}
								}
								JOINT mixamorig:RightHandPinky1
								{
									OFFSET -8.076698 -0.486725 -3.806299
									CHANNELS 6 Xposition Yposition Zposition Xrotation Yrotation Zrotation
									JOINT mixamorig:RightHandPinky2
									{
										OFFSET -3.600006 0.000000 0.000000
										CHANNELS 3 Xrotation Yrotation Zrotation
										JOINT mixamorig:RightHandPinky3
										{
											OFFSET -2.099998 0.000000 0.000000
											CHANNELS 3 Xrotation Yrotation Zrotation
											JOINT mixamorig:RightHandPinky4
											{
												OFFSET -2.115791 0.000000 0.000000
												CHANNELS 3 Xrotation Yrotation Zrotation
												End Site
												{
													OFFSET -2.115799 0.000000 0.000174
												}
											}
										}
									}
								}
							}
						}
					}
				}
				JOINT mixamorig:LeftShoulder
				{
					OFFSET 4.570400 11.014679 -2.160816
					CHANNELS 6 Xposition Yposition Zposition Xrotation Yrotation Zrotation
					JOINT mixamorig:LeftArm
					{
						OFFSET 10.592373 -0.524597 -2.232116
						CHANNELS 3 Xrotation Yrotation Zrotation
						JOINT mixamorig:LeftForeArm
						{
							OFFSET 27.841488 0.000000 0.000001
							CHANNELS 3 Xrotation Yrotation Zrotation
							JOINT mixamorig:LeftHand
							{
								OFFSET 28.328808 0.000000 -0.000000
								CHANNELS 3 Xrotation Yrotation Zrotation
								JOINT mixamorig:LeftHandThumb1
								{
									OFFSET 2.466103 -1.576202 2.681698
									CHANNELS 6 Xposition Yposition Zposition Xrotation Yrotation Zrotation
									JOINT mixamorig:LeftHandThumb2
									{
										OFFSET 3.243317 -1.872528 1.872530
										CHANNELS 3 Xrotation Yrotation Zrotation
										JOINT mixamorig:LeftHandThumb3
										{
											OFFSET 2.647881 -1.528763 1.528754
											CHANNELS 6 Xposition Yposition Zposition Xrotation Yrotation Zrotation
											JOINT mixamorig:LeftHandThumb4
											{
												OFFSET 1.998924 -1.154083 1.154080
												CHANNELS 6 Xposition Yposition Zposition Xrotation Yrotation Zrotation
												End Site
												{
													OFFSET 1.884041 -1.149155 1.337651
												}
											}
										}
									}
								}
								JOINT mixamorig:LeftHandIndex1
								{
									OFFSET 9.109299 -0.518005 2.259900
									CHANNELS 6 Xposition Yposition Zposition Xrotation Yrotation Zrotation
									JOINT mixamorig:LeftHandIndex2
									{
										OFFSET 3.699997 0.000000 0.000000
										CHANNELS 3 Xrotation Yrotation Zrotation
										JOINT mixamorig:LeftHandIndex3
										{
											OFFSET 2.850006 0.000000 0.000000
											CHANNELS 3 Xrotation Yrotation Zrotation
											JOINT mixamorig:LeftHandIndex4
											{
												OFFSET 2.774895 0.000000 0.000000
												CHANNELS 3 Xrotation Yrotation Zrotation
												End Site
												{
													OFFSET 2.774902 0.000000 -0.000072
												}
											}
										}
									}
								}
								JOINT mixamorig:LeftHandMiddle1
								{
									OFFSET 9.533401 0.000000 0.000000
									CHANNELS 6 Xposition Yposition Zposition Xrotation Yrotation Zrotation
									JOINT mixamorig:LeftHandMiddle2
									{
										OFFSET 3.699997 0.000000 0.000000
										CHANNELS 3 Xrotation Yrotation Zrotation
										JOINT mixamorig:LeftHandMiddle3
										{
											OFFSET 2.949997 0.000000 0.000000
											CHANNELS 3 Xrotation Yrotation Zrotation
											JOINT mixamorig:LeftHandMiddle4
											{
												OFFSET 2.952896 0.000000 0.000000
												CHANNELS 3 Xrotation Yrotation Zrotation
												End Site
												{
													OFFSET 2.952904 0.000000 0.000165
												}
											}
										}
									}
								}
								JOINT mixamorig:LeftHandRing1
								{
									OFFSET 9.104500 -0.042999 -1.865101
									CHANNELS 6 Xposition Yposition Zposition Xrotation Yrotation Zrotation
									JOINT mixamorig:LeftHandRing2
									{
										OFFSET 3.149994 0.000000 0.000000
										CHANNELS 3 Xrotation Yrotation Zrotation
										JOINT mixamorig:LeftHandRing3
										{
											OFFSET 2.950005 0.000000 0.000000
											CHANNELS 3 Xrotation Yrotation Zrotation
											JOINT mixamorig:LeftHandRing4
											{
												OFFSET 2.644302 0.000000 0.000000
												CHANNELS 3 Xrotation Yrotation Zrotation
												End Site
												{
													OFFSET 2.644302 0.000000 0.000083
												}
											}
										}
									}
								}
								JOINT mixamorig:LeftHandPinky1
								{
									OFFSET 8.077805 -0.486893 -3.806302
									CHANNELS 6 Xposition Yposition Zposition Xrotation Yrotation Zrotation
									JOINT mixamorig:LeftHandPinky2
									{
										OFFSET 3.600006 0.000000 0.000000
										CHANNELS 3 Xrotation Yrotation Zrotation
										JOINT mixamorig:LeftHandPinky3
										{
											OFFSET 2.099998 0.000000 0.000000
											CHANNELS 3 Xrotation Yrotation Zrotation
											JOINT mixamorig:LeftHandPinky4
											{
												OFFSET 2.125496 0.000000 0.000000
												CHANNELS 3 Xrotation Yrotation Zrotation
												End Site
												{
													OFFSET 2.125504 0.000000 -0.001254
												}
											}
										}
									}
								}
							}
						}
					}
				}
			}
		}
	}
	JOINT mixamorig:RightUpLeg
	{
		OFFSET -8.207800 -6.751701 -1.599544
		CHANNELS 6 Xposition Yposition Zposition Xrotation Yrotation Zrotation
		JOINT mixamorig:RightLeg
		{
			OFFSET 0.000004 -44.370152 0.345934
			CHANNELS 3 Xrotation Yrotation Zrotation
			JOINT mixamorig:RightFoot
			{
				OFFSET 0.000004 -44.423664 -3.043535
				CHANNELS 3 Xrotation Yrotation Zrotation
				JOINT mixamorig:RightToeBase
				{
					OFFSET 0.000001 -8.728691 10.710592
					CHANNELS 3 Xrotation Yrotation Zrotation
					JOINT mixamorig:RightToe_End
					{
						OFFSET 0.000000 -0.000665 9.278101
						CHANNELS 3 Xrotation Yrotation Zrotation
						End Site
						{
							OFFSET 0.000000 -0.000665 9.278103
						}
					}
				}
			}
		}
	}
	JOINT mixamorig:LeftUpLeg
	{
		OFFSET 8.207800 -6.751701 -1.599544
		CHANNELS 6 Xposition Yposition Zposition Xrotation Yrotation Zrotation
		JOINT mixamorig:LeftLeg
		{
			OFFSET 0.000004 -44.370037 0.346940
			CHANNELS 3 Xrotation Yrotation Zrotation
			JOINT mixamorig:LeftFoot
			{
				OFFSET 0.000004 -44.423611 -3.044388
				CHANNELS 3 Xrotation Yrotation Zrotation
				JOINT mixamorig:LeftToeBase
				{
					OFFSET 0.000001 -8.728690 10.710592
					CHANNELS 3 Xrotation Yrotation Zrotation
					JOINT mixamorig:LeftToe_End
					{
						OFFSET 0.000000 -0.000680 9.278101
						CHANNELS 3 Xrotation Yrotation Zrotation
						End Site
						{
							OFFSET 0.000000 -0.000680 9.278101
						}
					}
				}
			}
		}
	}
}
MOTION
Frames: 4
Frame Time: 0.033333
3.142357 41.959595 -46.294769 13.457369 -6.873718 5.478206 0.000001 10.181544 0.131526 44.541528 -8.955705 -9.019276 4.862666 -0.966729 -1.499266 4.872618 -0.953052 -1.465257 0.000001 16.740383 -2.049007 -0.957065 0.360302 0.324338 0.000001 9.617857 1.684988 -30.087260 2.895346 -2.550773 -0.000002 22.037369 7.501076 0.000002 0.000000 0.000001 -4.569999 11.014884 -2.160824 3.218352 19.255256 -2.402414 -52.142883 17.950799 17.365715 0.000316 104.280159 -0.000244 5.152815 -21.330110 6.360908 -2.464797 -1.573986 2.681907 -1.632807 -0.148002 -4.170141 9.038572 -7.557386 -11.560610 -2.646254 -1.527802 1.527817 -20.577719 18.557055 -6.764400 -1.994575 -1.151589 1.151573 -0.000001 -0.000000 -0.000000 -9.108294 -0.517881 2.259805 -0.803564 4.746427 6.976546 0.181619 -1.289202 16.036939 0.035903 -0.577798 7.111336 -0.000000 -0.000001 0.000003 -9.532500 0.000014 0.000000 -1.206566 3.604366 11.479763 0.182159 -1.291075 16.060896 0.213841 -1.396423 17.412022 0.000001 0.000001 0.000000 -9.103601 -0.043118 -1.865099 0.313419 -3.964115 28.930062 1.762210 -3.649617 51.535263 1.571291 -3.489751 48.469563 0.000000 0.000002 0.000001 -8.076698 -0.486707 -3.806299 1.132610 -5.296650 34.986128 1.543429 -3.464925 48.010284 1.488900 -3.415144 47.101579 -0.000001 -0.000000 0.000004 4.570403 11.014690 -2.160804 1.400993 -8.725267 7.174864 -57.105852 -32.602528 -39.875785 0.000028 -100.082045 0.000038 17.317070 18.232948 -1.319455 2.466108 -1.576192 2.681697 -0.665289 2.158804 4.836153 10.581680 15.065381 14.754957 2.647882 -1.528775 1.528753 -16.487003 -6.547807 6.276188 1.998925 -1.154085 1.154082 -0.000002 0.000002 -0.000000 9.109303 -0.518018 2.259897 0.070980 2.733354 -1.299176 0.120001 1.180976 -11.604872 0.004371 0.226700 -2.212762 -0.000002 0.000001 -0.000000 9.533399 -0.000001 -0.000001 0.212216 3.948908 -6.766580 0.067358 0.886880 -8.688381 0.084375 0.991864 -9.726363 0.000002 0.000000 -0.000000 9.104502 -0.042990 -1.865100 1.417838 6.188779 -48.318206 1.946542 4.361212 -48.090467 1.719329 4.146634 -45.028022 0.000000 -0.000001 0.000002 8.077822 -0.486897 -3.806302 2.946900 7.421666 -54.441542 1.686169 4.113313 -44.567521 1.621615 4.046914 -43.660406 0.000002 -0.000002 0.000003 -8.207800 -6.751703 -1.599530 -89.351777 2.677674 -6.561443 147.710094 1.892489 0.814386 -27.704593 1.470263 -4.970701 -45.594443 -0.000004 -0.000002 0.000000 -0.000000 -0.000000 8.207798 -6.751710 -1.599553 -122.654898 -7.440395 17.458705 114.426685 -8.914456 -1.758666 -2.370360 -1.352285 -2.300101 -1.072337 0.000002 0.000001 -0.000000 -0.000000 0.000000 
3.213993 41.954704 -46.257637 13.682924 -6.702055 5.399224 -0.000001 10.181557 0.131528 44.653683 -8.996122 -8.818273 4.889210 -1.016005 -1.452851 4.899817 -1.008043 -1.413045 0.000001 16.740364 -2.049017 -0.743073 0.368533 0.391281 -0.000001 9.617861 1.684978 -29.814554 2.878545 -2.294914 -0.000000 22.037369 7.501072 0.000001 -0.000001 -0.000000 -4.569999 11.014878 -2.160838 3.290948 19.283709 -2.832526 -51.589812 17.775296 16.894222 0.000210 104.902519 -0.000170 1.809096 -21.702603 9.763785 -2.464798 -1.573990 2.681906 -1.634146 -0.148884 -4.172119 9.041852 -7.570888 -11.562624 -2.646268 -1.527824 1.527815 -20.573703 18.542876 -6.766941 -1.994587 -1.151587 1.151571 0.000001 -0.000003 0.000001 -9.108291 -0.517880 2.259803 -0.802314 4.457461 7.216014 0.187757 -1.310346 16.307440 0.038631 -0.599294 7.377356 -0.000001 0.000001 -0.000002 -9.532498 0.000010 -0.000002 -1.232938 3.572729 11.745059 0.188293 -1.312208 16.331186 0.220384 -1.417078 17.678223 0.000001 -0.000001 0.000002 -9.103598 -0.043100 -1.865101 0.351098 -4.058586 30.146734 1.839613 -3.709684 52.741280 1.645322 -3.553827 49.674979 0.000002 -0.000001 0.000002 -8.076694 -0.486711 -3.806300 1.197176 -5.371146 36.206502 1.616969 -3.529603 49.215724 1.561389 -3.480975 48.306779 0.000001 -0.000001 -0.000000 4.570403 11.014673 -2.160811 1.513276 -8.908914 8.230523 -58.939956 -31.790132 -40.345904 0.000003 -99.830216 -0.000016 17.591630 17.709750 -0.135111 2.466107 -1.576201 2.681701 -0.665276 2.158799 4.836156 10.582141 15.070220 14.756576 2.647885 -1.528762 1.528749 -16.485488 -6.543349 6.277538 1.998913 -1.154068 1.154078 0.000003 0.000001 -0.000002 9.109300 -0.518012 2.259903 0.071005 2.796041 -1.036598 0.114821 1.155493 -11.351242 0.003440 0.200747 -1.959250 0.000000 0.000001 -0.000000 9.533401 0.000006 0.000001 0.208767 3.963864 -6.444803 0.062551 0.854782 -8.371636 0.078993 0.959934 -9.410326 0.000000 0.000000 0.000002 9.104491 -0.043004 -1.865097 1.449430 6.225425 -48.787529 1.982318 4.392985 -48.559319 1.753342 4.180244 -45.496495 0.000002 -0.000003 0.000001 8.077815 -0.486898 -3.806300 2.988939 7.445946 -54.912911 1.719885 4.147200 -45.036007 1.654811 4.081335 -44.128776 0.000006 0.000000 -0.000001 -8.207801 -6.751698 -1.599540 -89.498612 2.769211 -6.481778 147.701447 1.828516 0.828870 -27.762079 1.397300 -4.756543 -45.668052 -0.000004 -0.000001 -0.000000 -0.000001 0.000000 8.207797 -6.751706 -1.599548 -122.960358 -7.255546 17.570032 114.413489 -8.932187 -1.828294 -2.382334 -1.516723 -1.939633 -0.992785 -0.000000 -0.000001 0.000000 0.000000 0.000000 
3.272317 41.942177 -46.244591 13.892940 -6.547706 5.294214 -0.000000 10.181565 0.131526 44.708847 -9.018539 -8.618241 4.904829 -1.066019 -1.399417 4.916053 -1.064474 -1.353394 -0.000000 16.740387 -2.049024 -0.550064 0.380570 0.455172 0.000002 9.617858 1.684987 -29.444303 2.874249 -2.028221 -0.000002 22.037384 7.501071 0.000001 0.000001 0.000002 -4.570000 11.014886 -2.160852 3.334560 19.339119 -3.121614 -51.074041 17.696629 16.584036 0.000283 105.666469 -0.000220 0.883231 -22.201176 11.234949 -2.464793 -1.573973 2.681908 -1.635480 -0.149759 -4.174078 9.044154 -7.579700 -11.564067 -2.646271 -1.527816 1.527820 -20.571008 18.533421 -6.767912 -1.994571 -1.151581 1.151572 -0.000000 0.000003 0.000001 -9.108287 -0.517878 2.259804 -0.800146 4.265528 7.375127 0.191877 -1.324377 16.487192 0.040506 -0.613585 7.554118 0.000002 0.000000 0.000000 -9.532495 0.000007 -0.000001 -1.250386 3.551673 11.921329 0.192434 -1.326238 16.510778 0.224762 -1.430797 17.855134 0.000001 0.000001 0.000001 -9.103582 -0.043104 -1.865103 0.377395 -4.121137 30.955336 1.891750 -3.748679 53.542809 1.695282 -3.595532 50.476030 -0.000000 -0.000001 0.000002 -8.076687 -0.486714 -3.806297 1.240853 -5.419807 37.017563 1.666588 -3.571723 50.016850 1.610329 -3.523872 49.107745 -0.000000 0.000000 0.000000 4.570399 11.014677 -2.160819 1.645399 -9.127172 9.425636 -60.707022 -31.057932 -40.688967 0.000009 -99.056068 0.000004 18.296079 17.091517 0.284469 2.466108 -1.576201 2.681700 -0.665286 2.158802 4.836153 10.582580 15.073731 14.758015 2.647889 -1.528749 1.528751 -16.484429 -6.540271 6.277879 1.998920 -1.154084 1.154083 0.000001 -0.000001 0.000002 9.109301 -0.518008 2.259898 0.070730 2.831023 -0.890064 0.111992 1.141281 -11.209680 0.002950 0.186253 -1.817780 -0.000001 -0.000001 0.000003 9.533414 0.000000 -0.000003 0.206709 3.972201 -6.265220 0.059941 0.836874 -8.194871 0.076070 0.942110 -9.233968 -0.000003 0.000000 0.000003 9.104509 -0.042994 -1.865101 1.467186 6.245758 -49.049470 2.002407 4.410567 -48.820987 1.772447 4.198891 -45.757923 0.000002 -0.000003 -0.000001 8.077806 -0.486900 -3.806304 3.012656 7.459466 -55.175979 1.738868 4.166006 -45.297456 1.673452 4.100414 -44.390158 -0.000001 0.000001 0.000000 -8.207800 -6.751702 -1.599535 -89.663657 2.776181 -6.366282 147.709480 1.645028 0.843022 -27.867151 1.367431 -4.648659 -45.789814 -0.000005 0.000000 -0.000000 -0.000001 0.000000 8.207801 -6.751703 -1.599560 -123.229877 -7.104558 17.698405 114.398367 -8.946875 -1.887768 -2.519215 -1.735452 -1.595880 -0.785223 -0.000002 -0.000001 0.000000 0.000000 0.000000 
3.329512 41.930672 -46.256821 14.012479 -6.431904 5.183379 0.000000 10.181553 0.131525 44.839099 -9.015679 -8.409352 4.924736 -1.106829 -1.346541 4.936401 -1.111141 -1.294992 -0.000000 16.740370 -2.049010 -0.411743 0.391355 0.519284 0.000000 9.617861 1.684981 -29.217319 2.878278 -1.774654 -0.000001 22.037369 7.501072 -0.000007 -0.000001 0.000000 -4.570001 11.014868 -2.160836 3.363141 19.395374 -3.298198 -51.469089 17.578778 16.707742 0.000257 106.456285 -0.000210 1.414740 -22.643230 11.517611 -2.464789 -1.574005 2.681911 -1.636794 -0.150636 -4.176056 9.045646 -7.584367 -11.565004 -2.646271 -1.527800 1.527812 -20.569625 18.528237 -6.767347 -1.994587 -1.151583 1.151569 -0.000001 -0.000001 0.000001 -9.108286 -0.517874 2.259803 -0.798930 4.185752 7.441279 0.193614 -1.330215 16.561909 0.041303 -0.619506 7.627614 0.000001 -0.000002 -0.000001 -9.532492 0.000009 0.000000 -1.257560 3.542666 11.994589 0.194158 -1.332055 16.585444 0.226617 -1.436492 17.928686 0.000001 -0.000000 -0.000000 -9.103593 -0.043110 -1.865101 0.388880 -4.147512 31.291504 1.913584 -3.764681 53.876003 1.716211 -3.612672 50.809074 0.000001 0.000001 0.000001 -8.076684 -0.486717 -3.806297 1.259059 -5.439625 37.354824 1.687381 -3.589019 50.349890 1.630864 -3.541501 49.440761 -0.000002 0.000001 -0.000000 4.570399 11.014706 -2.160809 1.779284 -9.335536 10.630006 -62.355672 -30.421106 -40.981138 -0.000041 -98.258248 -0.000013 18.704330 17.286773 -1.071935 2.466101 -1.576198 2.681699 -0.665272 2.158809 4.836153 10.582981 15.076140 14.759351 2.647892 -1.528750 1.528746 -16.483495 -6.537526 6.278022 1.998928 -1.154084 1.154083 0.000002 -0.000004 -0.000002 9.109299 -0.518018 2.259898 0.072711 2.863789 -1.098266 0.116192 1.162324 -11.419058 0.003674 0.207676 -2.027060 -0.000000 -0.000002 -0.000001 9.533409 -0.000002 -0.000002 0.212951 3.996824 -6.466998 0.062918 0.857352 -8.396857 0.079425 0.962533 -9.435987 0.000000 -0.000001 0.000001 9.104500 -0.043006 -1.865105 1.470876 6.249956 -49.104351 2.006630 4.414252 -48.875802 1.776455 4.202776 -45.812708 -0.000001 -0.000000 0.000001 8.077798 -0.486895 -3.806301 3.017880 7.462462 -55.231102 1.742853 4.169933 -45.352227 1.677379 4.104403 -44.444895 0.000003 0.000003 -0.000001 -8.207801 -6.751694 -1.599552 -89.796558 2.724203 -6.293842 147.721651 1.431775 0.840704 -27.943296 1.346110 -4.570122 -45.862220 -0.000004 -0.000003 -0.000000 0.000000 0.000000 8.207799 -6.751704 -1.599550 -123.406806 -7.001908 17.809249 114.381818 -8.928168 -1.916851 -2.689992 -1.935467 -1.479350 -0.489986 -0.000012 0.035000 -0.000000 0.000000 0.000000 
